# xmcd
#
# Track frame offsets: 
#        150
#        13637
#        26105
#        40390
#        51262
#        62090
#        75909
#        89734
#        102557
#        115838
#        126795
#        137562
#        148648
#        158262
#        167056
#        178020
#        191470
#        203729
#        214603
#        227690
#        240119
#        253997
#        264866
#        277578
#        288312
#
# Disc length: 3988 seconds
#
# Revision: 2
# Processed by: cddbd v1.5.2PL0 Copyright (c) Steve Scherf et al.
# Submitted via: ExactAudioCopyFreeDBPlugin 1.0
#
DISCID=530f9219
DTITLE=Various Artist - The Best of Doo Wop [Real Gone Music]
DYEAR=2017
DGENRE=Rhythm and Blues
TTITLE0=The Orchids - Newly Wed
TTITLE1=The Spaniels - You Gave Me Piece of Mind
TTITLE2=The Cleftones - Little Girl of Mine
TTITLE3=The Cadillacs - Zoom
TTITLE4=The Drifters - Ruby Baby
TTITLE5=The Flamingos - A Kiss from Your Lips
TTITLE6=The Channels - The Closer You Are
TTITLE7=The Channels - The Gleam in Your Eyes
TTITLE8=The Cleftones - Can't We Be Sweethearts
TTITLE9=The Moonglows - See Saw
TTITLE10=The Jaguars - The Way You Look Tonight
TTITLE11=The Pearls - Tree in the Meadow
TTITLE12=The Chips - Rubber Biscuit
TTITLE13=Frankie Lymon - The ABC's of Love
TTITLE14=The Heartbeats - A Thousand Miles Away
TTITLE15=Frankie Lymon - I Want You to Be My Girl
TTITLE16=Frankie Lymon - I'm Not a Juvenile Delinquent
TTITLE17=The Willows - Church Bells May Ring
TTITLE18=The Dells - Oh What a Nite
TTITLE19=The Platters - My Prayer
TTITLE20=The Five Satins - In the Still of the Nite
TTITLE21=The Six Teens - A Casual Look
TTITLE22=The Magnificients - Up on the Mountain
TTITLE23=The Clovers - Devil or Angel
TTITLE24=The Pearls - Let's You and I Go Steady
EXTD=
EXTT0=
EXTT1=
EXTT2=
EXTT3=
EXTT4=
EXTT5=
EXTT6=
EXTT7=
EXTT8=
EXTT9=
EXTT10=
EXTT11=
EXTT12=
EXTT13=
EXTT14=
EXTT15=
EXTT16=
EXTT17=
EXTT18=
EXTT19=
EXTT20=
EXTT21=
EXTT22=
EXTT23=
EXTT24=
PLAYORDER=
